<?xml version="1.0" standalone="no"?>
<!DOCTYPE svg PUBLIC "-//W3C//DTD SVG 20010904//EN"
 "http://www.w3.org/TR/2001/REC-SVG-20010904/DTD/svg10.dtd">
<svg version="1.0" xmlns="http://www.w3.org/2000/svg"
 width="804.000000pt" height="56.000000pt" viewBox="0 0 804.000000 56.000000"
 preserveAspectRatio="xMidYMid meet">

<g transform="translate(0.000000,56.000000) scale(0.100000,-0.100000)"
fill="#000000" stroke="none">
<path d="M3971 524 c-45 -37 -58 -92 -37 -147 19 -51 67 -100 91 -95 10 1 31
20 48 40 53 66 47 165 -13 208 -37 26 -52 25 -89 -6z m88 -10 c55 -46 53 -125
-4 -190 l-33 -39 -27 25 c-70 65 -75 161 -11 212 28 24 39 22 75 -8z"/>
<path d="M3055 378 c-91 -33 -155 -113 -155 -194 1 -55 33 -120 72 -144 44
-26 58 -26 23 2 -35 27 -64 92 -65 141 0 86 80 168 179 183 99 15 186 -14 416
-140 119 -66 277 -120 398 -137 196 -29 414 32 702 196 184 104 319 112 419
24 55 -48 73 -105 56 -169 -17 -62 -38 -90 -85 -111 -43 -20 -35 -26 12 -8 79
29 126 124 103 208 -15 56 -69 114 -132 141 -44 19 -65 22 -133 18 -100 -6
-156 -28 -310 -118 -281 -165 -503 -209 -737 -147 -111 29 -231 83 -367 164
-125 74 -207 103 -296 102 -38 0 -83 -5 -100 -11z"/>
<path d="M3620 359 c0 -5 5 -7 10 -4 6 3 10 8 10 11 0 2 -4 4 -10 4 -5 0 -10
-5 -10 -11z"/>
<path d="M3769 360 c23 -5 62 -21 85 -35 22 -15 66 -42 96 -61 66 -42 80 -40
170 20 85 57 103 66 153 76 l42 8 -41 1 c-41 1 -67 -10 -201 -85 l-52 -29 -53
28 c-29 15 -74 39 -100 53 -27 15 -68 28 -95 30 l-48 3 44 -9z"/>
<path d="M4397 356 c-4 -10 -1 -13 9 -9 7 3 14 9 14 14 0 14 -17 10 -23 -5z"/>
<path d="M3660 333 c14 -9 59 -50 100 -90 116 -111 212 -142 340 -109 80 21
99 33 200 129 92 89 74 86 -31 -4 -100 -87 -143 -104 -254 -103 -109 0 -153
18 -248 102 -36 32 -80 65 -98 75 -31 17 -32 17 -9 0z"/>
<path d="M3055 205 c-14 -13 -25 -29 -25 -34 0 -17 18 -22 23 -6 9 22 76 36
120 24 36 -10 67 -48 67 -83 0 -24 -49 -75 -83 -86 l-32 -10 33 5 c102 15 145
114 78 181 -31 31 -39 34 -95 34 -52 0 -66 -4 -86 -25z"/>
<path d="M4820 213 c-38 -26 -49 -45 -50 -84 0 -59 65 -120 127 -119 10 1 0 7
-22 15 -47 17 -75 47 -75 82 0 82 113 120 178 60 l22 -20 0 26 c0 19 -8 31
-30 42 -39 20 -119 19 -150 -2z"/>
<path d="M2782 213 c-22 -9 -34 -41 -23 -62 23 -43 111 -28 111 19 0 33 -51
58 -88 43z m58 -44 c0 -13 -7 -19 -24 -19 -32 0 -44 20 -22 36 23 16 46 7 46
-17z"/>
<path d="M5188 209 c-27 -15 -22 -56 8 -76 24 -15 29 -15 53 -2 34 19 39 52 9
73 -26 18 -46 20 -70 5z m62 -40 c0 -13 -7 -19 -24 -19 -32 0 -44 20 -22 36
23 16 46 7 46 -17z"/>
<path d="M2 173 c3 -17 77 -18 1356 -21 1347 -2 1352 -2 1352 18 0 20 -6 20
-1356 20 -1286 0 -1355 -1 -1352 -17z"/>
<path d="M5324 179 c-3 -6 -2 -15 3 -20 5 -5 550 -8 1359 -7 1191 3 1349 5
1349 18 0 13 -158 15 -1352 18 -968 1 -1354 -1 -1359 -9z"/>
<path d="M3425 141 c-22 -10 -47 -26 -55 -36 -13 -15 -12 -19 9 -36 30 -25 65
-24 186 5 55 13 118 27 140 31 32 5 36 9 22 16 -73 41 -233 52 -302 20z m228
-7 c46 -8 49 -24 5 -24 -18 -1 -62 -7 -98 -15 -77 -17 -160 -19 -160 -5 0 6
19 20 43 30 43 20 135 26 210 14z"/>
<path d="M4351 138 c-61 -21 -63 -22 -35 -29 16 -3 83 -19 150 -34 125 -29
180 -29 204 0 9 11 7 19 -14 38 -55 51 -193 62 -305 25z m257 -23 c17 -11 32
-23 32 -27 0 -13 -100 -8 -165 7 -33 8 -75 15 -92 15 -38 0 -44 16 -10 23 12
3 63 4 112 3 68 -1 98 -6 123 -21z"/>
</g>
</svg>
